# xmcd
#
# Track frame offsets: 
#        150
#        18092
#        33370
#        50277
#        62010
#        78040
#        91952
#        105902
#        117360
#        137532
#
# Disc length: 2018 seconds
#
# Revision: 4
# Processed by: cddbd v1.5.1PL2 Copyright (c) Steve Scherf et al.
# Submitted via: ExactAudioCopy v0.95b3
#
DISCID=6907e00a
DTITLE=James Bonamy - Roots And Wings
DYEAR=1997
DGENRE=Country
TTITLE0=Roots And Wings
TTITLE1=The Swing
TTITLE2=Naked To The Pain
TTITLE3=I Knew I'd Need My Heart Someday
TTITLE4=Daddy Never Had A Chance In Hell
TTITLE5=The Heart Stops The Clock
TTITLE6=Some Things I Know
TTITLE7=Long As I Got You
TTITLE8=Little Blue Dot
TTITLE9=When God Dreams
EXTD=YEAR: 1997
EXTT0=
EXTT1=
EXTT2=
EXTT3=
EXTT4=
EXTT5=
EXTT6=
EXTT7=
EXTT8=
EXTT9=
PLAYORDER=
